<svg width="32" height="32" viewBox="0 0 32 32" fill="none" xmlns="http://www.w3.org/2000/svg">
  <!-- Rounded square background matching the header logo -->
  <rect x="2" y="2" width="28" height="28" rx="6" ry="6" fill="#059669"/>
  
  <!-- Exact PenTool icon from navigation bar, centered and scaled -->
  <g transform="translate(16,16) scale(0.75) translate(-12,-12)">
    <path d="M15.707 21.293a1 1 0 0 1-1.414 0l-1.586-1.586a1 1 0 0 1 0-1.414l5.586-5.586a1 1 0 0 1 1.414 0l1.586 1.586a1 1 0 0 1 0 1.414z" fill="none" stroke="white" stroke-width="2" stroke-linecap="round" stroke-linejoin="round"/>
    <path d="m18 13-1.375-6.874a1 1 0 0 0-.746-.776L3.235 2.028a1 1 0 0 0-1.207 1.207L5.35 15.879a1 1 0 0 0 .776.746L13 18" fill="none" stroke="white" stroke-width="2" stroke-linecap="round" stroke-linejoin="round"/>
    <path d="m2.3 2.3 7.286 7.286" stroke="white" stroke-width="2" stroke-linecap="round" stroke-linejoin="round"/>
    <circle cx="11" cy="11" r="2" fill="none" stroke="white" stroke-width="2"/>
  </g>
</svg>
